<?xml version="1.0" encoding="UTF-8" standalone="no"?>
<svg
   xmlns:dc="http://purl.org/dc/elements/1.1/"
   xmlns:cc="http://creativecommons.org/ns#"
   xmlns:rdf="http://www.w3.org/1999/02/22-rdf-syntax-ns#"
   xmlns:svg="http://www.w3.org/2000/svg"
   xmlns="http://www.w3.org/2000/svg"
   version="1.1"
   id="svg42"
   width="223"
   height="223"
   viewBox="0 0 223 223">
  <metadata
     id="metadata48">
    <rdf:RDF>
      <cc:Work
         rdf:about="">
        <dc:format>image/svg+xml</dc:format>
        <dc:type
           rdf:resource="http://purl.org/dc/dcmitype/StillImage" />
        <dc:title></dc:title>
      </cc:Work>
    </rdf:RDF>
  </metadata>
  <defs
     id="defs46" />
  <g
     id="g50">
    <path
       style="fill:#092B8A;stroke:none"
       d="m 102.55184,1.9554821 c -17.6146,2.341143 -33.9634,7.134983 -49,16.9205229 -62.8882001,40.9267 -68.1134,134.536095 -10,182.190095 24.2183,19.86 56.252898,26.955 87,23.179 14.666,-1.801 29.557,-7.498 42,-15.409 80.677,-51.295 62.537,-181.100395 -32,-204.1753749 -12.215,-2.981472 -25.471,-4.37052999 -38,-2.705243 m 0,10.8619229 c 11.75,-1.44311 24.558,-0.265 36,2.6088 84.449,21.2097 101.264,138.561895 28,184.040895 -13.096,8.129 -27.72,12.951 -43,14.779 -11.574,1.384 -23.766902,-0.02 -35,-2.842 -85.3962601,-21.453 -99.9689,-137.607495 -28,-184.008795 12.4914,-8.0537 27.2865,-12.7709 42,-14.5779 m 2,54.7137 h -20 v -13 h 20 l -2,-24 h 22 l -2,24 h 20 v 13 c -14.352,0 -20.998,-2.1734 -21,14 10.613,-2.433 20.087,-5.4395 29.999,1.108 4.336,2.8642 10.127,15.807097 15.056,15.105697 15.168,-2.1582 23.005,-27.484397 18.203,-40.213697 -2.596,-6.8839 -10.624,-12.9682 -16.258,-17.3202 -36.061,-27.8548 -90.5717,-22.9541 -121.2708,10.4097 -7.2152,7.8414 -24.4783,29.0299 -20.8936,40.910497 1.8938,6.2762 10.7439,11.702998 16.1644,14.686998 18.0467,9.933 48.073,10.38 61.682,-7.687798 5.068,-6.7282 1.772,-23.167197 0.318,-30.999197 m 87,1 c -0.093,11.1831 -4.311,22.301697 -13.015,29.671297 -3.354,2.840098 -8.398,4.057698 -11.382,7.143698 -3.069,3.173 0.046,11.18 -5.712,12.192 -2.743,0.482 -13.369,-2.69 -15.309,-4.744 -3.408,-3.606 2.913,-5.126 5.416,-4.73 2.36,0.373 4.629,1.118 7.002,1.467 -0.305,-14.687398 -10.145,-27.712595 -26,-24.330995 -15.541,3.314697 -21.517,18.082995 -34.000002,26.229995 -25.622498,16.723 -47.721198,3.982 -70.999998,-7.899 2.9282,10.118 7.4656,19.523 13.7593,28 1.8357,2.472 7.6888,7.159 6.699,10.663 -1.3546,4.795 -7.5801,-2.366 -8.6535,-3.668 -6.7587,-8.197 -11.7832,-17.193 -15.8048,-26.995 h -1 c 0.0603,28.734 12.1857,56.355 35,74.331 35.7864,28.197 97.328,25.953 125,-13.331 -24.613,16.264 -49.511,28.43 -80,22.739 -10.6954,-1.996 -21.5417,-5.293 -31,-10.754 -1.8687,-1.079 -10.2227,-5.13 -7.2485,-8.291 2.4932,-2.65 8.0155,1.798 10.2485,2.997 9.6375,5.173 21.072098,9.046 32,10.138 32.264,3.226 70.04,-9.454 87,-38.829 -21.549,15.18 -37.635,31.717 -66,32.961 -11.217,0.492 -22.485,-0.983 -33.000002,-5.026 -2.077398,-0.799 -11.269098,-4.477 -7.587998,-7.984 2.1306,-2.029 7.454098,1.424 9.587998,2.235 7.924002,3.012 16.558002,4.166 25.000002,4.359 30.6,0.698 68.063,-18.523 77,-49.545 h -1 c -11.747,22.067 -32.095,37.671 -57,41.561 -7.588,1.185 -16.494,1.005 -24,-0.566 -2.262,-0.473 -8.004,-1.394 -7.369,-4.865 0.687,-3.758 7.071,-1.749 9.369,-1.405 10.355,1.546 20.84,1.139 31,-1.646 28.76,-7.881 49.301,-35.418 48.996,-65.078998 -0.086,-8.394997 -1.268,-20.502497 -6.996,-26.999997 m 8,54.999995 -1,3 h 1 z"
       id="path72" />
  </g>
</svg>
